<svg xmlns="http://www.w3.org/2000/svg" fill="none" viewBox="0 0 20 20"><path fill="#333" fill-rule="evenodd" d="M15.838 13.64c.76 0 1.376-.663 1.376-1.481V7.333c0-.818-.616-1.481-1.376-1.481H4.162c-.76 0-1.376.663-1.376 1.481v4.826c0 .818.616 1.481 1.376 1.481h1.77v-2.18H4.888c-.217 0-.393-.19-.393-.423 0-.234.176-.423.393-.423h10.222c.217 0 .393.19.393.423 0 .234-.176.423-.393.423h-1.042v2.18zm-9.12-2.18v5.715l6.565-.021V11.46zm6.368-6.455H6.914V2.847h6.172zm2.752 0C17.032 5.005 18 6.048 18 7.333v4.826c0 1.285-.968 2.328-2.162 2.328h-1.77v3.09c0 .233-.175.423-.392.423H6.324c-.217 0-.393-.19-.393-.423v-3.09H4.162C2.968 14.487 2 13.444 2 12.159V7.333c0-1.285.968-2.328 2.162-2.328h1.966V2.423c0-.233.176-.423.393-.423h6.958c.217 0 .393.19.393.423v2.582zm-2.766 1.902h2.175c.218 0 .395.138.395.31 0 .17-.177.309-.395.309h-2.175c-.219 0-.396-.139-.396-.31s.177-.31.396-.31m-4.19 6.187h1.658c.197 0 .357-.138.357-.309s-.16-.31-.357-.31H8.881c-.197 0-.356.14-.356.31s.16.31.356.31m-.523 1.857h3.296c.237 0 .428.138.428.309s-.191.31-.428.31H8.36c-.236 0-.428-.14-.428-.31s.192-.31.428-.31" clip-rule="evenodd"/><path fill="#333" d="M5.931 13.64v.15h.15v-.15zm0-2.18h.15v-.15h-.15zm8.138 0v-.15h-.15v.15zm0 2.18h-.15v.15h.15zm-7.352 3.535h-.15v.15h.15zm0-5.715v-.15h-.15v.15zm6.566 5.694v.15l.15-.001v-.15zm0-5.694h.15v-.15h-.15zM6.914 5.005h-.15v.15h.15zm6.172 0v.15h.15v-.15zM6.914 2.847v-.15h-.15v.15zm6.172 0h.15v-.15h-.15zm.983 11.64v-.15h-.15v.15zm-8.138 0h.15v-.15h-.15zm.197-9.482v.15h.15v-.15zm7.744 0h-.15v.15h.15zm3.192 7.154c0 .746-.56 1.331-1.226 1.331v.3c.853 0 1.526-.74 1.526-1.631zm0-4.826v4.826h.3V7.333zm-1.226-1.331c.667 0 1.226.585 1.226 1.331h.3c0-.89-.673-1.631-1.526-1.631zm-11.676 0h11.676v-.3H4.162zM2.936 7.333c0-.746.56-1.331 1.226-1.331v-.3c-.853 0-1.526.74-1.526 1.631zm0 4.826V7.333h-.3v4.826zm1.226 1.331c-.667 0-1.226-.585-1.226-1.331h-.3c0 .89.673 1.631 1.526 1.631zm1.77 0h-1.77v.3h1.77zm-.15-2.03v2.18h.3v-2.18zm-.893.15h1.042v-.3H4.89zm-.543-.573c0 .306.233.573.543.573v-.3c-.124 0-.243-.111-.243-.273zm.543-.573c-.31 0-.543.267-.543.573h.3c0-.162.12-.273.243-.273zm10.222 0H4.889v.3h10.222zm.543.573c0-.306-.233-.573-.543-.573v.3c.123 0 .243.112.243.273zm-.543.573c.31 0 .543-.267.543-.573h-.3c0 .162-.12.273-.243.273zm-1.042 0h1.042v-.3h-1.042zm.15 2.03v-2.18h-.3v2.18zm1.619-.15h-1.77v.3h1.77zm-8.97 3.685V11.46h-.3v5.715zm6.414-.172-6.565.022v.3l6.566-.021zm-.15-5.543v5.694h.3V11.46zm-6.415.15h6.566v-.3H6.717zm.197-6.455h6.172v-.3H6.914zm-.15-2.308v2.158h.3V2.847zm6.322-.15H6.914v.3h6.172zm.15 2.308V2.847h-.3v2.158zm4.914 2.328c0-1.358-1.025-2.478-2.312-2.478v.3c1.1 0 2.012.965 2.012 2.178zm0 4.826V7.333h-.3v4.826zm-2.312 2.478c1.287 0 2.312-1.12 2.312-2.478h-.3c0 1.213-.911 2.178-2.012 2.178zm-1.77 0h1.77v-.3h-1.77zm.15 2.94v-3.09h-.3v3.09zm-.542.573c.31 0 .543-.267.543-.573h-.3c0 .161-.12.273-.243.273zm-7.352 0h7.352v-.3H6.324zm-.543-.573c0 .306.233.573.543.573v-.3c-.124 0-.243-.112-.243-.273zm0-3.09v3.09h.3v-3.09zm-1.619.15h1.77v-.3h-1.77zM1.85 12.159c0 1.358 1.025 2.478 2.312 2.478v-.3c-1.1 0-2.012-.965-2.012-2.178zm0-4.826v4.826h.3V7.333zm2.312-2.478c-1.287 0-2.312 1.12-2.312 2.478h.3c0-1.213.911-2.178 2.012-2.178zm1.966 0H4.162v.3h1.966zm-.15-2.432v2.582h.3V2.423zm.543-.573c-.31 0-.543.267-.543.573h.3c0-.161.119-.273.243-.273zm6.958 0H6.521v.3h6.958zm.543.573c0-.306-.233-.573-.543-.573v.3c.124 0 .243.112.243.273zm0 2.582V2.423h-.3v2.582zm1.816-.15h-1.966v.3h1.966zm-.591 1.902h-2.175v.3h2.175zm.545.46c0-.287-.28-.46-.545-.46v.3c.172 0 .245.103.245.16zm-.545.459c.264 0 .545-.174.545-.46h-.3c0 .056-.074.16-.245.16zm-2.175 0h2.175v-.3h-2.175zm-.546-.46c0 .286.28.46.546.46v-.3c-.172 0-.246-.104-.246-.16zm.546-.46c-.265 0-.546.174-.546.46h.3c0-.056.074-.16.246-.16zm-2.532 6.188H8.881v.3h1.66zm.207-.159c0 .069-.072.16-.207.16v.3c.26 0 .507-.187.507-.46zm-.207-.16c.135 0 .207.091.207.16h.3c0-.273-.248-.46-.507-.46zm-1.659 0h1.66v-.3H8.88zm-.206.16c0-.069.071-.16.206-.16v-.3c-.259 0-.506.187-.506.46zm.206.16c-.135 0-.206-.091-.206-.16h-.3c0 .273.247.46.506.46zm2.774 1.856H8.36v.3h3.296zm.578.459a.42.42 0 0 0-.187-.34.67.67 0 0 0-.39-.12v.3a.37.37 0 0 1 .214.063c.05.035.063.072.063.097zm-.578.46a.67.67 0 0 0 .39-.12.42.42 0 0 0 .188-.34h-.3c0 .025-.014.062-.063.097a.37.37 0 0 1-.215.062zm-3.296 0h3.296v-.3H8.36zm-.578-.46c0 .146.082.264.188.34a.67.67 0 0 0 .39.12v-.3a.37.37 0 0 1-.214-.063c-.05-.035-.064-.072-.064-.097zm.578-.46a.67.67 0 0 0-.39.12.42.42 0 0 0-.188.34h.3c0-.025.014-.062.064-.097a.37.37 0 0 1 .214-.062z"/></svg>